<svg xmlns="http://www.w3.org/2000/svg" version="1.1" xmlns:xlink="http://www.w3.org/1999/xlink" xmlns:svgjs="http://svgjs.com/svgjs" width="1440" height="560" preserveAspectRatio="none" viewBox="0 0 1440 560"><g mask="url(&quot;#SvgjsMask1014&quot;)" fill="none"><rect width="1440" height="560" x="0" y="0" fill="rgba(255, 255, 255, 1)"></rect><path d="M426.7 453.9L429.52 453.9L429.52 456.72L426.7 456.72z" fill="#e73635"></path><path d="M222.35 108.12 a16.32 16.32 0 1 0 32.64 0 a16.32 16.32 0 1 0 -32.64 0z" stroke="rgba(81, 233, 91, 1)"></path><path d="M837.76 95.01a41.06 41.06 0 1 0 77.22 27.93z" fill="#e73635"></path><path d="M1040.81 279.38L1078.08 279.38L1078.08 290.55L1040.81 290.55z" stroke="#e73635"></path><path d="M7.25 410.19a28.7 28.7 0 1 0 49.96 28.26z" stroke="rgba(8, 146, 236, 1)"></path><path d="M1155.16 104.2 a47.95 47.95 0 1 0 95.9 0 a47.95 47.95 0 1 0 -95.9 0z" fill="rgba(8, 146, 236, 1)"></path><path d="M410.65 313.34L457.09 313.34L457.09 359.78L410.65 359.78z" fill="rgba(81, 233, 91, 1)"></path><path d="M133.61 33.07 a46.52 46.52 0 1 0 93.04 0 a46.52 46.52 0 1 0 -93.04 0z" stroke="#e73635"></path><path d="M860.19 249.23 a13.03 13.03 0 1 0 26.06 0 a13.03 13.03 0 1 0 -26.06 0z" fill="rgba(8, 146, 236, 1)"></path><path d="M1030.65 456.34a31.81 31.81 0 1 0-39.33 50z" fill="#e73635"></path><path d="M837.69 86.44a7.34 7.34 0 1 0-5.84-13.47z" fill="rgba(8, 146, 236, 1)"></path><path d="M1416.92 225.39L1427.47 225.39L1427.47 235.94L1416.92 235.94z" stroke="#e73635"></path><path d="M327.59 89.83a46.6 46.6 0 1 0 26.27-89.42z" stroke="rgba(8, 146, 236, 1)"></path><path d="M1064 341.98L1110.5 341.98L1110.5 396.55L1064 396.55z" fill="rgba(235, 139, 51, 1)"></path><path d="M420.58 165.97a12.84 12.84 0 1 0 25.66 1.08z" stroke="rgba(81, 233, 91, 1)"></path><path d="M546.4 556.33 a28.68 28.68 0 1 0 57.36 0 a28.68 28.68 0 1 0 -57.36 0z" fill="rgba(235, 139, 51, 1)"></path><path d="M458.29 381.73 a7.03 7.03 0 1 0 14.06 0 a7.03 7.03 0 1 0 -14.06 0z" fill="rgba(235, 139, 51, 1)"></path><path d="M402.94 517.48 a36.16 36.16 0 1 0 72.32 0 a36.16 36.16 0 1 0 -72.32 0z" fill="rgba(81, 233, 91, 1)"></path><path d="M613.3 462.76 a46.49 46.49 0 1 0 92.98 0 a46.49 46.49 0 1 0 -92.98 0z" stroke="rgba(235, 139, 51, 1)"></path><path d="M74.22 518.11L128.6 518.11L128.6 545.77L74.22 545.77z" stroke="rgba(235, 139, 51, 1)"></path><path d="M801.48 145.86L843.26 145.86L843.26 187.64L801.48 187.64z" stroke="rgba(81, 233, 91, 1)"></path><path d="M548.38 424.36 a18.01 18.01 0 1 0 36.02 0 a18.01 18.01 0 1 0 -36.02 0z" stroke="rgba(81, 233, 91, 1)"></path><path d="M829.87 402.52L835.23 402.52L835.23 407.88L829.87 407.88z" fill="rgba(81, 233, 91, 1)"></path><path d="M883.97 421.56L920.74 421.56L920.74 458.33L883.97 458.33z" fill="#e73635"></path><path d="M342.17 37.03L360.07 37.03L360.07 60.19L342.17 60.19z" stroke="rgba(8, 146, 236, 1)"></path><path d="M689.02 38.06 a47.24 47.24 0 1 0 94.48 0 a47.24 47.24 0 1 0 -94.48 0z" fill="rgba(81, 233, 91, 1)"></path><path d="M1198.18 284.03 a48.64 48.64 0 1 0 97.28 0 a48.64 48.64 0 1 0 -97.28 0z" stroke="rgba(235, 139, 51, 1)"></path><path d="M21.56 337.06a33.27 33.27 0 1 0 26.58 61z" fill="rgba(81, 233, 91, 1)"></path><path d="M1173.65 449.98a30.18 30.18 0 1 0 20.07 56.92z" stroke="rgba(81, 233, 91, 1)"></path><path d="M541.69 172.78a20.56 20.56 0 1 0-39.74 10.56z" fill="rgba(81, 233, 91, 1)"></path><path d="M235.81 378.6L254.57 378.6L254.57 397.36L235.81 397.36z" fill="rgba(81, 233, 91, 1)"></path><path d="M160.45 299.72 a8.96 8.96 0 1 0 17.92 0 a8.96 8.96 0 1 0 -17.92 0z" fill="rgba(235, 139, 51, 1)"></path><path d="M1256.5 208.71L1310.17 208.71L1310.17 262.38L1256.5 262.38z" fill="rgba(81, 233, 91, 1)"></path></g><defs><mask id="SvgjsMask1014"><rect width="1440" height="560" fill="#ffffff"></rect></mask></defs></svg>